{
  "asset": {
    "version": "2.0",
    "generator": "THREE.GLTFExporter r171"
  },
  "scenes": [
    {
      "name": "Scene",
      "nodes": [
        8,
        9
      ]
    }
  ],
  "scene": 0,
  "nodes": [
    {
      "matrix": [
        1,
        0,
        0,
        0,
        0,
        1,
        0,
        0,
        0,
        0,
        1,
        0,
        33.90563358380196,
        32.04657741172525,
        -1.682167808367917,
        1
      ],
      "name": "Triangle_2",
      "extras": {
        "name": "Triangle 2"
      },
      "mesh": 0
    },
    {
      "matrix": [
        -0.7587980263077824,
        0,
        0,
        0,
        0,
        0.543964843306783,
        -0.003321408222948845,
        0,
        0,
        0.010896360574921826,
        1.7845554279651845,
        0,
        147.5475359169643,
        -1.3464332824038916,
        2.220446049250313e-16,
        1
      ],
      "name": "Triangle",
      "extras": {
        "name": "Triangle"
      },
      "mesh": 1
    },
    {
      "matrix": [
        1,
        0,
        0,
        0,
        0,
        1,
        0,
        0,
        0,
        0,
        1,
        0,
        -75,
        1.4210854715202004e-14,
        -1.784588693832205,
        1
      ],
      "name": "Triangle_3",
      "extras": {
        "name": "Triangle 3"
      },
      "mesh": 2
    },
    {
      "matrix": [
        0.030153689607045564,
        -0.007831556857332264,
        -0.999514593050183,
        0,
        0.17101007166283438,
        0.9852659527084418,
        -0.002560824749760826,
        0,
        0.9848077530122084,
        -0.17084984387091814,
        0.031048678817764297,
        0,
        0,
        0,
        0,
        1
      ],
      "name": "Group",
      "extras": {
        "name": "Group"
      },
      "children": [
        0,
        1,
        2
      ]
    },
    {
      "matrix": [
        0.9999999999999999,
        1.4901161129954585e-12,
        -1.490116111934185e-8,
        0,
        -1.4901161193847656e-8,
        0.00009999999957110983,
        -0.999999995,
        0,
        0,
        0.999999995,
        0.00009999999957122085,
        0,
        1.1368683772161603e-13,
        15956.133688510654,
        1.5875605756791487,
        1
      ],
      "camera": 0
    },
    {
      "matrix": [
        1,
        0,
        0,
        0,
        0,
        1,
        0,
        0,
        0,
        0,
        1,
        0,
        0,
        1,
        0,
        1
      ],
      "name": "Default_Ambient_Light",
      "extras": {
        "name": "Default Ambient Light"
      }
    },
    {
      "name": "Scene_1",
      "extras": {
        "name": "Scene 1"
      },
      "children": [
        3,
        4,
        5
      ]
    },
    {
      "matrix": [
        0.01,
        0,
        0,
        0,
        0,
        0.01,
        0,
        0,
        0,
        0,
        0.01,
        0,
        0,
        0,
        0,
        1
      ],
      "children": [
        6
      ]
    },
    {
      "matrix": [
        1,
        0,
        0,
        0,
        0,
        1,
        0,
        0,
        0,
        0,
        1,
        0,
        0.024236840911393775,
        2.176332727309605,
        -1.3458607626975538,
        1
      ],
      "name": "untitled.gltf",
      "children": [
        7
      ]
    },
    {
      "matrix": [
        1,
        0,
        0,
        0,
        0,
        1,
        0,
        0,
        0,
        0,
        1,
        0,
        0,
        0,
        -9.015672834254893,
        1
      ],
      "name": "Tube",
      "mesh": 3
    }
  ],
  "bufferViews": [
    {
      "buffer": 0,
      "byteOffset": 0,
      "byteLength": 5904,
      "target": 34962,
      "byteStride": 12
    },
    {
      "buffer": 0,
      "byteOffset": 5904,
      "byteLength": 5904,
      "target": 34962,
      "byteStride": 12
    },
    {
      "buffer": 0,
      "byteOffset": 11808,
      "byteLength": 3936,
      "target": 34962,
      "byteStride": 8
    },
    {
      "buffer": 0,
      "byteOffset": 15744,
      "byteLength": 5856,
      "target": 34963
    },
    {
      "buffer": 0,
      "byteOffset": 21600,
      "byteLength": 17568,
      "target": 34962,
      "byteStride": 12
    },
    {
      "buffer": 0,
      "byteOffset": 39168,
      "byteLength": 17568,
      "target": 34962,
      "byteStride": 12
    },
    {
      "buffer": 0,
      "byteOffset": 56736,
      "byteLength": 11712,
      "target": 34962,
      "byteStride": 8
    },
    {
      "buffer": 0,
      "byteOffset": 68448,
      "byteLength": 23424,
      "target": 34962,
      "byteStride": 16
    },
    {
      "buffer": 0,
      "byteOffset": 91872,
      "byteLength": 5904,
      "target": 34962,
      "byteStride": 12
    },
    {
      "buffer": 0,
      "byteOffset": 97776,
      "byteLength": 5904,
      "target": 34962,
      "byteStride": 12
    },
    {
      "buffer": 0,
      "byteOffset": 103680,
      "byteLength": 3936,
      "target": 34962,
      "byteStride": 8
    },
    {
      "buffer": 0,
      "byteOffset": 107616,
      "byteLength": 5856,
      "target": 34963
    },
    {
      "buffer": 0,
      "byteOffset": 113472,
      "byteLength": 7020,
      "target": 34962,
      "byteStride": 12
    },
    {
      "buffer": 0,
      "byteOffset": 120492,
      "byteLength": 7020,
      "target": 34962,
      "byteStride": 12
    },
    {
      "buffer": 0,
      "byteOffset": 127512,
      "byteLength": 4680,
      "target": 34962,
      "byteStride": 8
    },
    {
      "buffer": 0,
      "byteOffset": 132192,
      "byteLength": 6144,
      "target": 34963
    }
  ],
  "buffers": [
    {
      "byteLength": 138336,
      "uri": "data:application/octet-stream;base64,"
    }
  ],
  "accessors": [
    {
      "bufferView": 0,
      "componentType": 5126,
      "count": 492,
      "max": [
        219.7252655029297,
        223.17933654785156,
        2
      ],
      "min": [
        -219.7252655029297,
        -224.42845153808594,
        0
      ],
      "type": "VEC3"
    },
    {
      "bufferView": 1,
      "componentType": 5126,
      "count": 492,
      "max": [
        0.9999436140060425,
        0.9996647238731384,
        1
      ],
      "min": [
        -0.9999436140060425,
        -1,
        -1
      ],
      "type": "VEC3"
    },
    {
      "bufferView": 2,
      "componentType": 5126,
      "count": 492,
      "max": [
        1,
        1
      ],
      "min": [
        0,
        0
      ],
      "type": "VEC2"
    },
    {
      "bufferView": 3,
      "componentType": 5125,
      "count": 1464,
      "max": [
        491
      ],
      "min": [
        0
      ],
      "type": "SCALAR"
    },
    {
      "bufferView": 4,
      "componentType": 5126,
      "count": 1464,
      "max": [
        285.8475341796875,
        460.1703186035156,
        2
      ],
      "min": [
        -285.8475341796875,
        -461.6434326171875,
        0
      ],
      "type": "VEC3"
    },
    {
      "bufferView": 5,
      "componentType": 5126,
      "count": 1464,
      "max": [
        0.9999048113822937,
        0.9995788335800171,
        1
      ],
      "min": [
        -0.9999048113822937,
        -1,
        -1
      ],
      "type": "VEC3"
    },
    {
      "bufferView": 6,
      "componentType": 5126,
      "count": 1464,
      "max": [
        1,
        1
      ],
      "min": [
        0,
        0
      ],
      "type": "VEC2"
    },
    {
      "bufferView": 7,
      "componentType": 5126,
      "count": 1464,
      "max": [
        1,
        0.9999048113822937,
        0.9999457597732544,
        1
      ],
      "min": [
        -0.5646766424179077,
        -0.8253044486045837,
        -0.99996417760849,
        -1
      ],
      "type": "VEC4"
    },
    {
      "bufferView": 8,
      "componentType": 5126,
      "count": 492,
      "max": [
        249.23760986328125,
        248.76824951171875,
        2
      ],
      "min": [
        -249.23760986328125,
        -250,
        0
      ],
      "type": "VEC3"
    },
    {
      "bufferView": 9,
      "componentType": 5126,
      "count": 492,
      "max": [
        0.9998714327812195,
        0.999656617641449,
        1
      ],
      "min": [
        -0.9998714327812195,
        -1,
        -1
      ],
      "type": "VEC3"
    },
    {
      "bufferView": 10,
      "componentType": 5126,
      "count": 492,
      "max": [
        1,
        1
      ],
      "min": [
        0,
        0
      ],
      "type": "VEC2"
    },
    {
      "bufferView": 11,
      "componentType": 5125,
      "count": 1464,
      "max": [
        491
      ],
      "min": [
        0
      ],
      "type": "SCALAR"
    },
    {
      "bufferView": 12,
      "componentType": 5126,
      "count": 585,
      "max": [
        3.2958438396453857,
        2.3161849975585938,
        2.8897876739501953
      ],
      "min": [
        -3.2337610721588135,
        -3.476849317550659,
        -2.948697566986084
      ],
      "type": "VEC3"
    },
    {
      "bufferView": 13,
      "componentType": 5126,
      "count": 585,
      "max": [
        1,
        0.9768494367599487,
        0.9613887667655945
      ],
      "min": [
        -1,
        -0.9768494367599487,
        -0.9613887667655945
      ],
      "type": "VEC3"
    },
    {
      "bufferView": 14,
      "componentType": 5126,
      "count": 585,
      "max": [
        1,
        1
      ],
      "min": [
        0,
        0
      ],
      "type": "VEC2"
    },
    {
      "bufferView": 15,
      "componentType": 5123,
      "count": 3072,
      "max": [
        584
      ],
      "min": [
        0
      ],
      "type": "SCALAR"
    }
  ],
  "materials": [
    {
      "pbrMetallicRoughness": {
        "baseColorFactor": [
          0.0027317428517647058,
          0.8796223968851662,
          0.6724431569510133,
          1
        ],
        "metallicFactor": 0,
        "roughnessFactor": 1
      }
    },
    {
      "pbrMetallicRoughness": {
        "baseColorFactor": [
          0.010329823026364548,
          0.25818285291079235,
          0.009134058699157796,
          1
        ],
        "metallicFactor": 0,
        "roughnessFactor": 1
      }
    },
    {
      "pbrMetallicRoughness": {
        "baseColorFactor": [
          0.0069954101845983935,
          0.2746773120495699,
          0.2663556047920505,
          1
        ],
        "metallicFactor": 1,
        "roughnessFactor": 0
      },
      "emissiveFactor": [
        0.6307571363387763,
        0.5271151256969157,
        0.008023192982520563
      ],
      "extensions": {
        "KHR_materials_emissive_strength": {
          "emissiveStrength": 0
        }
      }
    }
  ],
  "meshes": [
    {
      "primitives": [
        {
          "mode": 1,
          "attributes": {
            "POSITION": 0,
            "NORMAL": 1,
            "TEXCOORD_0": 2
          },
          "extras": {
            "shape": {
              "points": [
                0,
                224.4284542067884,
                0,
                224.4284542067884,
                0,
                224.4284542067884,
                2,
                220.4779718164341,
                -224.4284542067884,
                220.4779718164341,
                -224.4284542067884,
                220.4779718164341,
                -224.4284542067884,
                2,
                -220.4779718164341,
                -224.4284542067884,
                -220.4779718164341,
                -224.4284542067884,
                -220.4779718164341,
                -224.4284542067884,
                2
              ],
              "shapeHoles": [],
              "isClosed": true,
              "roundness": 2
            },
            "parameters": {
              "width": 440.9559436328682,
              "depth": 2,
              "spikes": 5,
              "cornerRadius": 2,
              "extrudeBevelSize": 0,
              "extrudeBevelSegments": 1,
              "isRect": false,
              "height": 448.8569084135768,
              "type": "TriangleGeometry"
            },
            "type": "TriangleGeometry"
          },
          "indices": 3,
          "material": 0
        }
      ]
    },
    {
      "primitives": [
        {
          "mode": 1,
          "attributes": {
            "POSITION": 4,
            "NORMAL": 5,
            "TEXCOORD_0": 6,
            "TANGENT": 7
          },
          "material": 1
        }
      ]
    },
    {
      "primitives": [
        {
          "mode": 1,
          "attributes": {
            "POSITION": 8,
            "NORMAL": 9,
            "TEXCOORD_0": 10
          },
          "extras": {
            "shape": {
              "points": [
                0,
                250,
                0,
                250,
                0,
                250,
                2,
                250,
                -250,
                250,
                -250,
                250,
                -250,
                2,
                -250,
                -250,
                -250,
                -250,
                -250,
                -250,
                2
              ],
              "shapeHoles": [],
              "isClosed": false,
              "roundness": 2
            },
            "parameters": {
              "width": 500,
              "depth": 2,
              "spikes": 5,
              "cornerRadius": 2,
              "extrudeBevelSize": 0,
              "extrudeBevelSegments": 1,
              "isRect": false,
              "height": 500,
              "type": "TriangleGeometry"
            },
            "type": "TriangleGeometry"
          },
          "indices": 11,
          "material": 0
        }
      ]
    },
    {
      "primitives": [
        {
          "mode": 4,
          "attributes": {
            "POSITION": 12,
            "NORMAL": 13,
            "TEXCOORD_0": 14
          },
          "indices": 15,
          "material": 2
        }
      ]
    }
  ],
  "cameras": [
    {
      "type": "perspective",
      "perspective": {
        "aspectRatio": 1.394302848575712,
        "yfov": 0.7853981633974483,
        "zfar": 100000,
        "znear": 70
      }
    }
  ],
  "extensionsUsed": [
    "KHR_materials_emissive_strength"
  ]
}