{
  "asset": {
    "version": "2.0",
    "generator": "THREE.GLTFExporter"
  },
  "scenes": [
    {
      "nodes": [
        0
      ]
    }
  ],
  "scene": 0,
  "nodes": [
    {
      "children": [
        7
      ],
      "matrix": [
        0.01,
        0,
        0,
        0,
        0,
        0.01,
        0,
        0,
        0,
        0,
        0.01,
        0,
        0,
        0,
        0,
        1
      ]
    },
    {
      "matrix": [
        1,
        0,
        0,
        0,
        0,
        1,
        0,
        0,
        0,
        0,
        1,
        0,
        29.522028183565936,
        25.571545793211612,
        0,
        1
      ],
      "name": "Triangle 2",
      "mesh": 0
    },
    {
      "matrix": [
        -0.7587980263077824,
        0,
        0,
        0,
        0,
        0.5439648433067829,
        -0.0033214082229488444,
        0,
        0,
        0.010896360574921824,
        1.7845554279651843,
        0,
        147.5475359169643,
        -1.3464332824038916,
        2.220446049250313e-16,
        1
      ],
      "name": "Triangle",
      "mesh": 1
    },
    {
      "matrix": [
        1,
        0,
        0,
        0,
        0,
        1,
        0,
        0,
        0,
        0,
        1,
        0,
        -75,
        1.4210854715202004e-14,
        -1.784588693832205,
        1
      ],
      "name": "Triangle 3",
      "mesh": 2
    },
    {
      "matrix": [
        1,
        0,
        0,
        0,
        0,
        -0.1849805770525983,
        -0.9827421768262965,
        0,
        0,
        0.9827421768262965,
        -0.1849805770525983,
        0,
        -18.485328083077803,
        -98.64125901778175,
        -154.13114355835611,
        1
      ],
      "name": "Group",
      "children": [
        1,
        2,
        3
      ]
    },
    {
      "matrix": [
        0.9999999999999999,
        1.4901161129954585e-12,
        -1.490116111934185e-8,
        0,
        -1.4901161193847656e-8,
        0.00009999999957110983,
        -0.999999995,
        0,
        0,
        0.999999995,
        0.00009999999957122085,
        0,
        1.1368683772161603e-13,
        15956.133688510654,
        1.5875605756791487,
        1
      ],
      "camera": 0
    },
    {
      "matrix": [
        1,
        0,
        0,
        0,
        0,
        1,
        0,
        0,
        0,
        0,
        1,
        0,
        0,
        1,
        0,
        1
      ],
      "name": "Default Ambient Light"
    },
    {
      "name": "Scene 1",
      "children": [
        4,
        5,
        6
      ]
    }
  ],
  "bufferViews": [
    {
      "buffer": 0,
      "byteOffset": 0,
      "byteLength": 5904,
      "target": 34962,
      "byteStride": 12
    },
    {
      "buffer": 0,
      "byteOffset": 5904,
      "byteLength": 5904,
      "target": 34962,
      "byteStride": 12
    },
    {
      "buffer": 0,
      "byteOffset": 11808,
      "byteLength": 3936,
      "target": 34962,
      "byteStride": 8
    },
    {
      "buffer": 0,
      "byteOffset": 15744,
      "byteLength": 5856,
      "target": 34963
    },
    {
      "buffer": 0,
      "byteOffset": 21600,
      "byteLength": 5904,
      "target": 34962,
      "byteStride": 12
    },
    {
      "buffer": 0,
      "byteOffset": 27504,
      "byteLength": 5904,
      "target": 34962,
      "byteStride": 12
    },
    {
      "buffer": 0,
      "byteOffset": 33408,
      "byteLength": 3936,
      "target": 34962,
      "byteStride": 8
    },
    {
      "buffer": 0,
      "byteOffset": 37344,
      "byteLength": 5856,
      "target": 34963
    },
    {
      "buffer": 0,
      "byteOffset": 43200,
      "byteLength": 5904,
      "target": 34962,
      "byteStride": 12
    },
    {
      "buffer": 0,
      "byteOffset": 49104,
      "byteLength": 5904,
      "target": 34962,
      "byteStride": 12
    },
    {
      "buffer": 0,
      "byteOffset": 55008,
      "byteLength": 3936,
      "target": 34962,
      "byteStride": 8
    },
    {
      "buffer": 0,
      "byteOffset": 58944,
      "byteLength": 5856,
      "target": 34963
    }
  ],
  "buffers": [
    {
      "byteLength": 64800,
      "uri": "data:application/octet-stream;base64,"
    }
  ],
  "accessors": [
    {
      "bufferView": 0,
      "componentType": 5126,
      "count": 492,
      "max": [
        219.7252655029297,
        223.17933654785156,
        2
      ],
      "min": [
        -219.7252655029297,
        -224.42845153808594,
        0
      ],
      "type": "VEC3"
    },
    {
      "bufferView": 1,
      "componentType": 5126,
      "count": 492,
      "max": [
        0.9999436140060425,
        0.9996647238731384,
        1
      ],
      "min": [
        -0.9999436140060425,
        -1,
        -1
      ],
      "type": "VEC3"
    },
    {
      "bufferView": 2,
      "componentType": 5126,
      "count": 492,
      "max": [
        1,
        1
      ],
      "min": [
        0,
        0
      ],
      "type": "VEC2"
    },
    {
      "bufferView": 3,
      "componentType": 5125,
      "count": 1464,
      "max": [
        491
      ],
      "min": [
        0
      ],
      "type": "SCALAR"
    },
    {
      "bufferView": 4,
      "componentType": 5126,
      "count": 492,
      "max": [
        285.8475341796875,
        460.1703186035156,
        2
      ],
      "min": [
        -285.8475341796875,
        -461.6434326171875,
        0
      ],
      "type": "VEC3"
    },
    {
      "bufferView": 5,
      "componentType": 5126,
      "count": 492,
      "max": [
        0.9999048113822937,
        0.9995788335800171,
        1
      ],
      "min": [
        -0.9999048113822937,
        -1,
        -1
      ],
      "type": "VEC3"
    },
    {
      "bufferView": 6,
      "componentType": 5126,
      "count": 492,
      "max": [
        1,
        1
      ],
      "min": [
        0,
        0
      ],
      "type": "VEC2"
    },
    {
      "bufferView": 7,
      "componentType": 5125,
      "count": 1464,
      "max": [
        491
      ],
      "min": [
        0
      ],
      "type": "SCALAR"
    },
    {
      "bufferView": 8,
      "componentType": 5126,
      "count": 492,
      "max": [
        249.23760986328125,
        248.76824951171875,
        2
      ],
      "min": [
        -249.23760986328125,
        -250,
        0
      ],
      "type": "VEC3"
    },
    {
      "bufferView": 9,
      "componentType": 5126,
      "count": 492,
      "max": [
        0.9998714327812195,
        0.999656617641449,
        1
      ],
      "min": [
        -0.9998714327812195,
        -1,
        -1
      ],
      "type": "VEC3"
    },
    {
      "bufferView": 10,
      "componentType": 5126,
      "count": 492,
      "max": [
        1,
        1
      ],
      "min": [
        0,
        0
      ],
      "type": "VEC2"
    },
    {
      "bufferView": 11,
      "componentType": 5125,
      "count": 1464,
      "max": [
        491
      ],
      "min": [
        0
      ],
      "type": "SCALAR"
    }
  ],
  "meshes": [
    {
      "primitives": [
        {
          "mode": 1,
          "attributes": {
            "POSITION": 0,
            "NORMAL": 1,
            "TEXCOORD_0": 2
          },
          "extras": {
            "shape": {
              "points": [
                0,
                224.4284542067884,
                0,
                224.4284542067884,
                0,
                224.4284542067884,
                2,
                220.4779718164341,
                -224.4284542067884,
                220.4779718164341,
                -224.4284542067884,
                220.4779718164341,
                -224.4284542067884,
                2,
                -220.4779718164341,
                -224.4284542067884,
                -220.4779718164341,
                -224.4284542067884,
                -220.4779718164341,
                -224.4284542067884,
                2
              ],
              "shapeHoles": [],
              "isClosed": true,
              "roundness": 2
            },
            "parameters": {
              "width": 440.9559436328682,
              "depth": 2,
              "spikes": 5,
              "cornerRadius": 2,
              "extrudeBevelSize": 0,
              "extrudeBevelSegments": 1,
              "isRect": false,
              "height": 448.8569084135768,
              "type": "TriangleGeometry"
            },
            "type": "TriangleGeometry"
          },
          "indices": 3
        }
      ]
    },
    {
      "primitives": [
        {
          "mode": 1,
          "attributes": {
            "POSITION": 4,
            "NORMAL": 5,
            "TEXCOORD_0": 6
          },
          "extras": {
            "shape": {
              "points": [
                0,
                461.64343527747906,
                0,
                461.64343527747906,
                0,
                461.64343527747906,
                2,
                286.3729335062534,
                -461.64343527747906,
                286.3729335062534,
                -461.64343527747906,
                286.3729335062534,
                -461.64343527747906,
                2,
                -286.3729335062534,
                -461.64343527747906,
                -286.3729335062534,
                -461.64343527747906,
                -286.3729335062534,
                -461.64343527747906,
                2
              ],
              "shapeHoles": [],
              "isClosed": true,
              "roundness": 2
            },
            "parameters": {
              "width": 572.7458670125068,
              "depth": 2,
              "spikes": 5,
              "cornerRadius": 2,
              "extrudeBevelSize": 0,
              "extrudeBevelSegments": 1,
              "isRect": false,
              "height": 923.2868705549581,
              "type": "TriangleGeometry"
            },
            "type": "TriangleGeometry"
          },
          "indices": 7
        }
      ]
    },
    {
      "primitives": [
        {
          "mode": 1,
          "attributes": {
            "POSITION": 8,
            "NORMAL": 9,
            "TEXCOORD_0": 10
          },
          "extras": {
            "shape": {
              "points": [
                0,
                250,
                0,
                250,
                0,
                250,
                2,
                250,
                -250,
                250,
                -250,
                250,
                -250,
                2,
                -250,
                -250,
                -250,
                -250,
                -250,
                -250,
                2
              ],
              "shapeHoles": [],
              "isClosed": false,
              "roundness": 2
            },
            "parameters": {
              "width": 500,
              "depth": 2,
              "spikes": 5,
              "cornerRadius": 2,
              "extrudeBevelSize": 0,
              "extrudeBevelSegments": 1,
              "isRect": false,
              "height": 500,
              "type": "TriangleGeometry"
            },
            "type": "TriangleGeometry"
          },
          "indices": 11
        }
      ]
    }
  ],
  "cameras": [
    {
      "type": "perspective",
      "perspective": {
        "aspectRatio": 1.8207681365576103,
        "yfov": 0.7853981633974483,
        "zfar": 100000,
        "znear": 70
      }
    }
  ]
}